<svg xmlns="http://www.w3.org/2000/svg" xmlns:xlink="http://www.w3.org/1999/xlink" width="1024" zoomAndPan="magnify" viewBox="0 0 768 576" height="768" preserveAspectRatio="xMidYMid meet" version="1.0"><defs><clipPath id="09b089d8d0"><path d="M 335.265625 575.761719 L 335.898438 575.761719 L 335.898438 576 L 335.265625 576 Z M 335.265625 575.761719 " clip-rule="nonzero"/></clipPath><clipPath id="d1113a39c4"><path d="M 461 575.761719 L 461.707031 575.761719 L 461.707031 576 L 461 576 Z M 461 575.761719 " clip-rule="nonzero"/></clipPath><clipPath id="0d530df761"><path d="M 246.695312 0 L 487.058594 0 L 487.058594 576 L 246.695312 576 Z M 246.695312 0 " clip-rule="nonzero"/></clipPath></defs><path fill="#ffffff" d="M 193.664062 449.316406 C 192.503906 450.335938 191.023438 450.894531 189.484375 450.894531 C 187.945312 450.894531 186.464844 450.335938 185.3125 449.324219 L 157.265625 424.558594 C 144.34375 411.644531 140.675781 402.714844 143.511719 391.386719 C 146.0625 381.171875 153.152344 373.957031 163.46875 371.0625 C 171.726562 368.746094 181.402344 371.304688 189.484375 377.675781 C 197.53125 371.320312 207.242188 368.746094 215.503906 371.0625 C 225.820312 373.957031 232.90625 381.171875 235.457031 391.386719 C 238.367188 403.007812 234.875 411.398438 221.632812 424.640625 Z M 230.960938 492.484375 C 231.148438 487.070312 232.171875 482.992188 234.386719 478.855469 C 253.816406 442.535156 250.964844 382.230469 247.949219 318.378906 C 247.53125 309.585938 247.117188 300.765625 246.757812 291.980469 C 246.347656 281.800781 240.414062 278.292969 234.714844 278.386719 C 230.589844 278.46875 226.320312 280.65625 226.3125 284.1875 C 226.3125 284.289062 226.289062 284.386719 226.28125 284.488281 C 226.277344 316.679688 226.3125 351.117188 226.3125 351.117188 L 216.007812 351.128906 C 216.007812 351.128906 215.9375 283.421875 216.007812 249.105469 C 216.019531 243.371094 211.183594 241.144531 207.042969 240.980469 C 203.246094 240.8125 197.003906 242.425781 196.421875 249.246094 L 196.417969 288.097656 C 196.414062 314.234375 196.414062 336.585938 196.417969 337.25 C 196.4375 340.027344 194.242188 342.324219 191.464844 342.433594 C 188.710938 342.589844 186.332031 340.433594 186.128906 337.660156 C 186.113281 337.421875 186.113281 337.421875 186.117188 288.097656 L 186.121094 233.488281 C 186.121094 228.316406 180.558594 224.246094 175.78125 224.195312 C 169.734375 224.164062 163.621094 227.910156 163.480469 235.261719 C 162.847656 268.269531 163.386719 340.410156 163.394531 341.140625 C 163.414062 343.980469 161.125 346.308594 158.28125 346.328125 C 158.269531 346.328125 158.253906 346.328125 158.242188 346.328125 C 155.414062 346.328125 153.109375 344.050781 153.089844 341.21875 C 153.085938 340.644531 152.746094 295.40625 152.917969 260.085938 C 152.769531 259.78125 152.648438 259.453125 152.558594 259.109375 C 150.898438 252.601562 147.304688 248.964844 142.9375 249.394531 C 138.90625 249.785156 134.617188 253.785156 134.226562 260.671875 C 133.285156 277.238281 133.851562 310.21875 134.355469 339.320312 C 134.886719 370.183594 135.148438 387.855469 134.277344 392.109375 C 134.269531 392.148438 134.246094 392.175781 134.234375 392.214844 C 134.121094 392.722656 133.925781 393.207031 133.664062 393.664062 C 133.617188 393.742188 133.566406 393.816406 133.515625 393.894531 C 133.238281 394.316406 132.910156 394.707031 132.507812 395.039062 C 132.457031 395.082031 132.398438 395.113281 132.347656 395.152344 C 132.152344 395.300781 131.960938 395.453125 131.738281 395.574219 C 131.53125 395.691406 131.316406 395.765625 131.101562 395.851562 C 131.03125 395.878906 130.96875 395.914062 130.898438 395.9375 C 130.402344 396.109375 129.898438 396.1875 129.390625 396.203125 C 129.335938 396.203125 129.289062 396.230469 129.238281 396.230469 C 129.164062 396.230469 129.089844 396.210938 129.019531 396.207031 C 128.839844 396.199219 128.667969 396.179688 128.492188 396.152344 C 128.394531 396.136719 128.296875 396.144531 128.199219 396.121094 C 128.132812 396.109375 128.078125 396.082031 128.011719 396.066406 C 127.84375 396.023438 127.683594 395.96875 127.519531 395.910156 C 127.359375 395.851562 127.199219 395.796875 127.046875 395.726562 C 126.902344 395.660156 126.769531 395.578125 126.628906 395.5 C 126.480469 395.410156 126.328125 395.320312 126.1875 395.21875 C 126.0625 395.125 125.949219 395.023438 125.832031 394.921875 C 125.699219 394.800781 125.566406 394.679688 125.445312 394.546875 C 125.34375 394.4375 125.253906 394.320312 125.164062 394.203125 C 125.046875 394.046875 124.933594 393.890625 124.832031 393.722656 C 124.800781 393.675781 124.761719 393.636719 124.734375 393.585938 C 124.679688 393.492188 124.648438 393.378906 124.597656 393.28125 C 124.539062 393.160156 124.476562 393.042969 124.429688 392.914062 C 123.527344 391.152344 122.796875 389.171875 122.273438 386.8125 C 118.554688 370.171875 113.976562 357.066406 109.03125 348.90625 C 104.773438 341.882812 100.171875 339.195312 97.53125 339.027344 C 96.539062 338.980469 95.296875 339.121094 93.90625 340.863281 C 92.421875 342.730469 91.871094 345.453125 92.4375 348.136719 C 95.480469 362.578125 107.804688 417.886719 112.8125 431.425781 C 121.050781 453.699219 127.988281 460.785156 136.019531 468.988281 C 138.800781 471.828125 141.679688 474.769531 144.773438 478.460938 C 147.273438 481.449219 149.289062 485.527344 150.757812 490.582031 C 153.855469 501.214844 153.871094 548.820312 153.777344 565.542969 L 233.601562 565.542969 C 232.855469 548.980469 230.699219 500.082031 230.960938 492.484375 " fill-opacity="1" fill-rule="nonzero"/><path fill="#ffffff" d="M 397.0625 325.167969 C 395.789062 326.28125 394.164062 326.898438 392.476562 326.898438 C 390.78125 326.898438 389.148438 326.277344 387.878906 325.152344 L 345.125 287.398438 C 326.324219 268.613281 320.925781 255.6875 324.972656 239.488281 C 328.625 224.890625 338.765625 214.570312 353.519531 210.433594 C 365.867188 206.972656 380.496094 211.242188 392.472656 221.417969 C 404.4375 211.246094 419.078125 206.96875 431.433594 210.433594 C 446.191406 214.570312 456.328125 224.890625 459.976562 239.488281 C 463.664062 254.222656 461.523438 265.71875 439.601562 287.640625 Z M 449.183594 380.613281 C 449.429688 373.484375 450.769531 368.136719 453.65625 362.738281 C 481.875 310.003906 477.898438 218.117188 474.046875 129.253906 C 473.699219 121.230469 473.355469 113.203125 473.027344 105.203125 C 472.402344 89.839844 462.933594 84.492188 454.539062 84.703125 C 447.953125 84.828125 441.132812 88.558594 441.117188 94.578125 C 441.117188 94.714844 441.089844 94.839844 441.078125 94.976562 C 441.070312 139.183594 441.117188 186.472656 441.117188 186.472656 L 430.816406 186.484375 C 430.816406 186.484375 430.722656 93.535156 430.816406 46.429688 C 430.835938 37.1875 423.203125 33.605469 416.660156 33.351562 C 409.269531 33.066406 400.863281 37.046875 400.085938 46.492188 L 400.085938 96.519531 C 400.082031 132.550781 400.078125 166.582031 400.085938 167.4375 C 400.300781 170.273438 398.171875 172.578125 395.335938 172.796875 C 392.445312 173.023438 390.015625 170.71875 389.796875 167.886719 C 389.773438 167.609375 389.773438 167.609375 389.78125 96.515625 L 389.785156 24.984375 C 389.785156 16.675781 381.285156 10.378906 373.6875 10.304688 C 373.613281 10.304688 373.546875 10.304688 373.480469 10.304688 C 364.574219 10.304688 355.070312 16.25 354.859375 27.382812 C 353.992188 72.71875 354.734375 171.789062 354.742188 172.785156 C 354.761719 175.628906 352.476562 177.953125 349.632812 177.976562 C 349.617188 177.976562 349.605469 177.976562 349.589844 177.976562 C 346.765625 177.976562 344.460938 175.695312 344.4375 172.863281 C 344.433594 172.070312 343.964844 109.519531 344.207031 60.972656 C 343.972656 60.574219 343.773438 60.152344 343.65625 59.683594 C 341.113281 49.753906 335.433594 44.253906 328.394531 44.90625 C 322.042969 45.527344 315.300781 51.660156 314.703125 62.191406 C 313.40625 85.003906 314.1875 130.304688 314.878906 170.277344 C 315.605469 212.53125 315.964844 236.71875 314.808594 242.359375 C 314.796875 242.402344 314.773438 242.433594 314.765625 242.472656 C 314.648438 242.976562 314.457031 243.457031 314.195312 243.910156 C 314.144531 243.992188 314.09375 244.070312 314.039062 244.152344 C 313.761719 244.574219 313.4375 244.960938 313.035156 245.289062 C 312.984375 245.332031 312.925781 245.363281 312.871094 245.402344 C 312.675781 245.554688 312.484375 245.707031 312.265625 245.828125 C 312.058594 245.941406 311.84375 246.019531 311.628906 246.101562 C 311.558594 246.128906 311.5 246.167969 311.425781 246.191406 C 310.933594 246.359375 310.429688 246.4375 309.921875 246.453125 C 309.871094 246.453125 309.820312 246.480469 309.765625 246.480469 C 309.691406 246.480469 309.617188 246.460938 309.542969 246.457031 C 309.367188 246.449219 309.191406 246.425781 309.019531 246.402344 C 308.921875 246.386719 308.824219 246.394531 308.726562 246.371094 C 308.664062 246.359375 308.605469 246.328125 308.542969 246.316406 C 308.375 246.273438 308.210938 246.21875 308.046875 246.160156 C 307.886719 246.101562 307.726562 246.046875 307.574219 245.972656 C 307.429688 245.910156 307.296875 245.828125 307.164062 245.75 C 307.007812 245.660156 306.855469 245.570312 306.714844 245.464844 C 306.589844 245.375 306.476562 245.269531 306.359375 245.164062 C 306.226562 245.046875 306.09375 244.929688 305.976562 244.800781 C 305.871094 244.6875 305.777344 244.5625 305.683594 244.4375 C 305.570312 244.289062 305.460938 244.144531 305.367188 243.984375 C 305.332031 243.929688 305.289062 243.886719 305.257812 243.832031 C 303.875 241.351562 302.867188 238.5625 302.085938 235.058594 C 298.496094 218.988281 292.386719 196.816406 283.671875 182.4375 C 278.46875 173.851562 271.835938 168.304688 266.363281 167.957031 C 263.792969 167.765625 261.632812 168.851562 259.765625 171.199219 C 257.339844 174.25 256.464844 178.46875 257.371094 182.777344 C 261.550781 202.625 278.5 278.667969 285.421875 297.386719 C 296.878906 328.351562 306.535156 338.214844 317.714844 349.636719 C 321.507812 353.511719 325.429688 357.519531 329.625 362.527344 C 332.890625 366.425781 335.53125 371.789062 337.476562 378.472656 C 341.964844 393.894531 341.644531 533.0625 341.511719 565.699219 L 455.105469 565.699219 C 454 535.476562 448.796875 391.78125 449.183594 380.613281 " fill-opacity="1" fill-rule="nonzero"/><path fill="#ffffff" d="M 609.339844 447.550781 C 608.179688 448.570312 606.695312 449.128906 605.160156 449.128906 C 603.617188 449.128906 602.132812 448.570312 600.976562 447.546875 L 572.941406 422.789062 C 560.019531 409.878906 556.351562 400.949219 559.183594 389.621094 C 561.738281 379.40625 568.824219 372.191406 579.140625 369.296875 C 587.398438 366.984375 597.082031 369.539062 605.160156 375.914062 C 613.265625 369.519531 622.9375 366.984375 631.175781 369.296875 C 641.492188 372.191406 648.578125 379.40625 651.132812 389.621094 C 654.039062 401.238281 650.546875 409.632812 637.308594 422.871094 Z M 646.632812 490.722656 C 646.820312 485.300781 647.84375 481.222656 650.058594 477.089844 C 669.488281 440.777344 666.640625 380.484375 663.621094 316.648438 C 663.203125 307.84375 662.789062 299.007812 662.429688 290.210938 C 662.023438 280.035156 656.097656 276.554688 650.386719 276.625 C 646.265625 276.703125 641.992188 278.890625 641.988281 282.421875 C 641.988281 282.523438 641.960938 282.617188 641.953125 282.71875 C 641.949219 314.914062 641.988281 349.351562 641.988281 349.351562 L 631.679688 349.363281 C 631.679688 349.363281 631.613281 281.65625 631.679688 247.34375 C 631.691406 241.605469 626.855469 239.378906 622.714844 239.214844 C 618.917969 239.035156 612.675781 240.664062 612.097656 247.480469 L 612.09375 286.332031 C 612.089844 312.472656 612.089844 334.820312 612.09375 335.484375 C 612.109375 338.261719 609.914062 340.5625 607.136719 340.667969 C 604.394531 340.785156 602 338.664062 601.800781 335.886719 C 601.785156 335.652344 601.785156 335.652344 601.789062 286.332031 L 601.792969 231.722656 C 601.792969 226.550781 596.230469 222.476562 591.449219 222.429688 C 591.402344 222.429688 591.359375 222.429688 591.308594 222.429688 C 585.347656 222.429688 579.289062 226.207031 579.152344 233.5 C 578.519531 266.503906 579.0625 338.648438 579.066406 339.375 C 579.085938 342.21875 576.796875 344.542969 573.953125 344.5625 C 573.941406 344.5625 573.929688 344.5625 573.914062 344.5625 C 571.089844 344.5625 568.785156 342.28125 568.761719 339.453125 C 568.757812 338.878906 568.421875 293.632812 568.589844 258.320312 C 568.441406 258.011719 568.320312 257.6875 568.234375 257.347656 C 566.566406 250.835938 562.898438 247.214844 558.617188 247.628906 C 554.582031 248.019531 550.289062 252.019531 549.898438 258.90625 C 548.953125 275.46875 549.527344 308.4375 550.027344 337.527344 C 550.5625 368.410156 550.820312 386.085938 549.953125 390.34375 C 549.945312 390.382812 549.921875 390.410156 549.910156 390.445312 C 549.792969 390.960938 549.601562 391.445312 549.332031 391.902344 C 549.289062 391.976562 549.242188 392.050781 549.191406 392.125 C 548.914062 392.550781 548.582031 392.945312 548.175781 393.28125 C 548.128906 393.316406 548.082031 393.339844 548.035156 393.375 C 547.835938 393.53125 547.640625 393.683594 547.410156 393.8125 C 547.207031 393.925781 546.988281 394 546.777344 394.082031 C 546.707031 394.113281 546.640625 394.148438 546.566406 394.171875 C 546.078125 394.339844 545.582031 394.417969 545.078125 394.433594 C 545.023438 394.433594 544.96875 394.460938 544.910156 394.460938 C 544.832031 394.460938 544.742188 394.441406 544.664062 394.4375 C 544.507812 394.429688 544.347656 394.410156 544.191406 394.390625 C 544.085938 394.375 543.980469 394.378906 543.871094 394.359375 C 543.800781 394.34375 543.738281 394.3125 543.671875 394.296875 C 543.507812 394.253906 543.351562 394.203125 543.203125 394.148438 C 543.035156 394.089844 542.875 394.03125 542.71875 393.960938 C 542.570312 393.890625 542.429688 393.808594 542.289062 393.722656 C 542.144531 393.640625 542 393.554688 541.867188 393.457031 C 541.730469 393.359375 541.609375 393.246094 541.480469 393.132812 C 541.359375 393.023438 541.238281 392.914062 541.125 392.792969 C 541.011719 392.671875 540.914062 392.542969 540.816406 392.410156 C 540.707031 392.269531 540.601562 392.125 540.511719 391.972656 C 540.480469 391.917969 540.433594 391.875 540.402344 391.816406 C 540.347656 391.714844 540.3125 391.589844 540.253906 391.488281 C 540.203125 391.378906 540.148438 391.273438 540.105469 391.160156 C 539.203125 389.394531 538.472656 387.414062 537.949219 385.046875 C 534.226562 368.402344 529.648438 355.296875 524.707031 347.140625 C 520.449219 340.117188 515.847656 337.429688 513.199219 337.261719 C 512.242188 337.1875 510.96875 337.355469 509.582031 339.097656 C 508.09375 340.964844 507.546875 343.683594 508.113281 346.375 C 511.15625 360.816406 523.484375 416.140625 528.488281 429.65625 C 536.722656 451.933594 543.660156 459.019531 551.691406 467.222656 C 554.476562 470.066406 557.355469 473.003906 560.445312 476.695312 C 562.949219 479.683594 564.964844 483.761719 566.429688 488.816406 C 569.527344 499.449219 569.546875 547.050781 569.453125 563.773438 L 649.273438 563.773438 C 648.527344 547.21875 646.375 498.316406 646.632812 490.722656 " fill-opacity="1" fill-rule="nonzero"/><path fill="#ef7385" d="M 560.285156 572.164062 C 560.179688 572.035156 560.066406 571.917969 559.976562 571.78125 C 560.066406 571.917969 560.179688 572.035156 560.285156 572.164062 " fill-opacity="1" fill-rule="nonzero"/><path fill="#ef7385" d="M 559.746094 571.355469 C 559.664062 571.207031 559.570312 571.0625 559.507812 570.90625 C 559.570312 571.0625 559.664062 571.207031 559.746094 571.355469 " fill-opacity="1" fill-rule="nonzero"/><path fill="#ef7385" d="M 559.359375 570.4375 C 559.308594 570.269531 559.246094 570.109375 559.210938 569.9375 C 559.246094 570.109375 559.308594 570.269531 559.359375 570.4375 " fill-opacity="1" fill-rule="nonzero"/><path fill="#ef7385" d="M 560.964844 572.855469 C 560.84375 572.753906 560.714844 572.660156 560.601562 572.550781 C 560.714844 572.660156 560.84375 572.753906 560.964844 572.855469 " fill-opacity="1" fill-rule="nonzero"/><path fill="#ef7385" d="M 561.777344 573.414062 C 561.636719 573.335938 561.492188 573.269531 561.359375 573.179688 C 561.492188 573.269531 561.636719 573.335938 561.777344 573.414062 " fill-opacity="1" fill-rule="nonzero"/><path fill="#ef7385" d="M 659.816406 568.925781 C 659.816406 568.882812 659.804688 568.84375 659.800781 568.800781 C 659.808594 568.984375 659.785156 569.167969 659.773438 569.351562 C 659.785156 569.207031 659.816406 569.070312 659.816406 568.925781 " fill-opacity="1" fill-rule="nonzero"/><path fill="#ef7385" d="M 559.109375 568.925781 C 559.109375 569.089844 559.144531 569.246094 559.15625 569.410156 C 559.144531 569.238281 559.113281 569.074219 559.113281 568.902344 C 559.113281 568.90625 559.109375 568.917969 559.109375 568.925781 " fill-opacity="1" fill-rule="nonzero"/><path fill="#ef7385" d="M 659.722656 569.839844 C 659.691406 570.015625 659.636719 570.183594 659.585938 570.355469 C 659.636719 570.183594 659.691406 570.015625 659.722656 569.839844 " fill-opacity="1" fill-rule="nonzero"/><path fill="#ef7385" d="M 659.449219 570.8125 C 659.382812 570.976562 659.300781 571.128906 659.21875 571.285156 C 659.300781 571.128906 659.382812 570.976562 659.449219 570.8125 " fill-opacity="1" fill-rule="nonzero"/><path fill="#ef7385" d="M 657.636719 573.121094 C 657.503906 573.214844 657.359375 573.292969 657.21875 573.371094 C 657.359375 573.292969 657.5 573.214844 657.636719 573.121094 " fill-opacity="1" fill-rule="nonzero"/><path fill="#ef7385" d="M 658.382812 572.476562 C 658.269531 572.59375 658.136719 572.699219 658.015625 572.808594 C 658.136719 572.699219 658.269531 572.59375 658.382812 572.476562 " fill-opacity="1" fill-rule="nonzero"/><path fill="#ef7385" d="M 658.996094 571.695312 C 658.902344 571.839844 658.792969 571.972656 658.6875 572.105469 C 658.792969 571.972656 658.902344 571.839844 658.996094 571.695312 " fill-opacity="1" fill-rule="nonzero"/><path fill="#ef7385" d="M 656.769531 573.617188 C 656.621094 573.683594 656.464844 573.730469 656.304688 573.785156 C 656.464844 573.730469 656.621094 573.683594 656.769531 573.617188 " fill-opacity="1" fill-rule="nonzero"/><path fill="#ef7385" d="M 655.816406 573.9375 C 655.652344 573.976562 655.480469 573.988281 655.308594 574.011719 C 655.480469 573.988281 655.652344 573.976562 655.816406 573.9375 " fill-opacity="1" fill-rule="nonzero"/><path fill="#ef7385" d="M 562.699219 573.808594 C 562.546875 573.757812 562.382812 573.722656 562.234375 573.660156 C 562.382812 573.722656 562.546875 573.757812 562.699219 573.808594 " fill-opacity="1" fill-rule="nonzero"/><path fill="#ef7385" d="M 563.707031 574.019531 C 563.539062 574.003906 563.363281 574 563.199219 573.964844 C 563.363281 574 563.539062 574.003906 563.707031 574.019531 " fill-opacity="1" fill-rule="nonzero"/><path fill="#ef7385" d="M 332.46875 574.226562 C 332.324219 574.058594 332.175781 573.898438 332.054688 573.714844 C 332.175781 573.898438 332.324219 574.058594 332.46875 574.226562 " fill-opacity="1" fill-rule="nonzero"/><path fill="#ef7385" d="M 331.464844 572.464844 C 331.402344 572.273438 331.328125 572.078125 331.285156 571.871094 C 331.328125 572.078125 331.402344 572.273438 331.464844 572.464844 " fill-opacity="1" fill-rule="nonzero"/><path fill="#ef7385" d="M 331.890625 573.417969 C 331.78125 573.226562 331.664062 573.042969 331.582031 572.839844 C 331.664062 573.042969 331.78125 573.226562 331.890625 573.417969 " fill-opacity="1" fill-rule="nonzero"/><path fill="#ef7385" d="M 333.164062 574.882812 C 333 574.753906 332.828125 574.628906 332.679688 574.480469 C 332.828125 574.628906 333 574.753906 333.164062 574.882812 " fill-opacity="1" fill-rule="nonzero"/><path fill="#ef7385" d="M 465.601562 570.851562 C 465.601562 570.816406 465.589844 570.789062 465.589844 570.753906 C 465.59375 570.933594 465.570312 571.101562 465.558594 571.273438 C 465.570312 571.132812 465.601562 570.996094 465.601562 570.851562 " fill-opacity="1" fill-rule="nonzero"/><path fill="#ef7385" d="M 333.945312 575.390625 C 333.777344 575.300781 333.597656 575.21875 333.441406 575.109375 C 333.597656 575.21875 333.777344 575.300781 333.945312 575.390625 " fill-opacity="1" fill-rule="nonzero"/><path fill="#ef7385" d="M 465.503906 571.796875 C 465.472656 571.964844 465.417969 572.125 465.371094 572.285156 C 465.417969 572.121094 465.472656 571.964844 465.503906 571.796875 " fill-opacity="1" fill-rule="nonzero"/><path fill="#ef7385" d="M 331.183594 570.851562 C 331.183594 571.03125 331.21875 571.207031 331.234375 571.382812 C 331.214844 571.199219 331.183594 571.023438 331.183594 570.835938 C 331.183594 570.839844 331.183594 570.847656 331.183594 570.851562 " fill-opacity="1" fill-rule="nonzero"/><path fill="#ef7385" d="M 462.535156 575.550781 C 462.382812 575.621094 462.21875 575.664062 462.058594 575.71875 C 462.21875 575.664062 462.378906 575.621094 462.535156 575.550781 " fill-opacity="1" fill-rule="nonzero"/><path fill="#ef7385" d="M 464.148438 574.421875 C 464.035156 574.539062 463.90625 574.640625 463.785156 574.746094 C 463.90625 574.636719 464.035156 574.539062 464.148438 574.421875 " fill-opacity="1" fill-rule="nonzero"/><path fill="#ef7385" d="M 463.398438 575.0625 C 463.265625 575.15625 463.117188 575.230469 462.976562 575.3125 C 463.117188 575.230469 463.265625 575.15625 463.398438 575.0625 " fill-opacity="1" fill-rule="nonzero"/><path fill="#ef7385" d="M 464.761719 573.648438 C 464.675781 573.785156 464.566406 573.910156 464.460938 574.042969 C 464.566406 573.910156 464.675781 573.785156 464.761719 573.648438 " fill-opacity="1" fill-rule="nonzero"/><path fill="#ef7385" d="M 334.832031 575.753906 C 334.660156 575.699219 334.480469 575.660156 334.316406 575.589844 C 334.480469 575.660156 334.660156 575.699219 334.832031 575.753906 " fill-opacity="1" fill-rule="nonzero"/><path fill="#ef7385" d="M 465.222656 572.765625 C 465.160156 572.921875 465.078125 573.066406 465 573.214844 C 465.078125 573.066406 465.160156 572.921875 465.222656 572.765625 " fill-opacity="1" fill-rule="nonzero"/><g clip-path="url(#09b089d8d0)"><path fill="#ef7385" d="M 335.8125 575.949219 C 335.636719 575.933594 335.453125 575.929688 335.28125 575.890625 C 335.453125 575.929688 335.636719 575.933594 335.8125 575.949219 " fill-opacity="1" fill-rule="nonzero"/></g><g clip-path="url(#d1113a39c4)"><path fill="#ef7385" d="M 461.578125 575.867188 C 461.410156 575.90625 461.230469 575.917969 461.058594 575.941406 C 461.230469 575.917969 461.410156 575.90625 461.578125 575.867188 " fill-opacity="1" fill-rule="nonzero"/></g><path fill="#ef7385" d="M 240.144531 575.703125 C 239.980469 575.742188 239.808594 575.757812 239.636719 575.78125 C 239.808594 575.757812 239.980469 575.742188 240.144531 575.703125 " fill-opacity="1" fill-rule="nonzero"/><path fill="#ef7385" d="M 148.03125 575.789062 C 147.863281 575.769531 147.6875 575.765625 147.523438 575.730469 C 147.6875 575.765625 147.863281 575.769531 148.03125 575.789062 " fill-opacity="1" fill-rule="nonzero"/><path fill="#ef7385" d="M 146.101562 575.179688 C 145.964844 575.101562 145.816406 575.039062 145.6875 574.949219 C 145.816406 575.039062 145.964844 575.101562 146.101562 575.179688 " fill-opacity="1" fill-rule="nonzero"/><path fill="#ef7385" d="M 241.101562 575.382812 C 240.953125 575.449219 240.792969 575.496094 240.636719 575.550781 C 240.792969 575.496094 240.953125 575.449219 241.101562 575.382812 " fill-opacity="1" fill-rule="nonzero"/><path fill="#ef7385" d="M 147.027344 575.578125 C 146.871094 575.527344 146.707031 575.492188 146.558594 575.425781 C 146.707031 575.492188 146.871094 575.527344 147.027344 575.578125 " fill-opacity="1" fill-rule="nonzero"/><path fill="#ef7385" d="M 244.050781 571.605469 C 244.019531 571.785156 243.964844 571.953125 243.917969 572.128906 C 243.964844 571.953125 244.019531 571.785156 244.050781 571.605469 " fill-opacity="1" fill-rule="nonzero"/><path fill="#ef7385" d="M 243.777344 572.578125 C 243.710938 572.742188 243.628906 572.898438 243.546875 573.054688 C 243.628906 572.898438 243.710938 572.742188 243.777344 572.578125 " fill-opacity="1" fill-rule="nonzero"/><path fill="#ef7385" d="M 244.144531 570.691406 C 244.144531 570.648438 244.132812 570.609375 244.132812 570.566406 C 244.136719 570.753906 244.117188 570.9375 244.101562 571.117188 C 244.113281 570.976562 244.144531 570.835938 244.144531 570.691406 " fill-opacity="1" fill-rule="nonzero"/><path fill="#ef7385" d="M 243.324219 573.460938 C 243.230469 573.605469 243.121094 573.742188 243.015625 573.878906 C 243.121094 573.742188 243.230469 573.609375 243.324219 573.460938 " fill-opacity="1" fill-rule="nonzero"/><path fill="#ef7385" d="M 241.964844 574.886719 C 241.832031 574.984375 241.6875 575.058594 241.546875 575.140625 C 241.6875 575.058594 241.832031 574.984375 241.964844 574.886719 " fill-opacity="1" fill-rule="nonzero"/><path fill="#ef7385" d="M 242.714844 574.242188 C 242.597656 574.363281 242.46875 574.46875 242.34375 574.578125 C 242.46875 574.46875 242.597656 574.363281 242.714844 574.242188 " fill-opacity="1" fill-rule="nonzero"/><path fill="#ef7385" d="M 143.6875 572.207031 C 143.632812 572.039062 143.570312 571.878906 143.535156 571.703125 C 143.570312 571.878906 143.632812 572.039062 143.6875 572.207031 " fill-opacity="1" fill-rule="nonzero"/><path fill="#ef7385" d="M 144.609375 573.929688 C 144.507812 573.804688 144.394531 573.6875 144.300781 573.550781 C 144.394531 573.6875 144.507812 573.804688 144.609375 573.929688 " fill-opacity="1" fill-rule="nonzero"/><path fill="#ef7385" d="M 143.433594 570.691406 C 143.433594 570.859375 143.46875 571.015625 143.484375 571.175781 C 143.46875 571.007812 143.4375 570.839844 143.4375 570.667969 C 143.4375 570.675781 143.433594 570.683594 143.433594 570.691406 " fill-opacity="1" fill-rule="nonzero"/><path fill="#ef7385" d="M 144.070312 573.121094 C 143.988281 572.972656 143.898438 572.828125 143.832031 572.671875 C 143.898438 572.832031 143.988281 572.972656 144.070312 573.121094 " fill-opacity="1" fill-rule="nonzero"/><path fill="#ef7385" d="M 145.292969 574.625 C 145.171875 574.519531 145.039062 574.429688 144.925781 574.316406 C 145.039062 574.429688 145.171875 574.519531 145.292969 574.625 " fill-opacity="1" fill-rule="nonzero"/><g clip-path="url(#0d530df761)"><path fill="#000000" d="M 275.757812 300.960938 C 287.976562 333.988281 298.847656 345.089844 310.351562 356.84375 C 314.007812 360.578125 317.789062 364.4375 321.726562 369.140625 C 324.066406 371.941406 326.039062 376.046875 327.582031 381.347656 C 330.898438 392.746094 331.550781 500.902344 331.183594 570.824219 C 331.183594 570.828125 331.183594 570.832031 331.183594 570.835938 C 331.183594 571.023438 331.214844 571.199219 331.234375 571.382812 C 331.253906 571.546875 331.253906 571.714844 331.285156 571.871094 C 331.328125 572.078125 331.402344 572.273438 331.464844 572.464844 C 331.507812 572.589844 331.53125 572.71875 331.582031 572.839844 C 331.664062 573.042969 331.78125 573.226562 331.890625 573.417969 C 331.949219 573.515625 331.992188 573.621094 332.054688 573.714844 C 332.175781 573.898438 332.324219 574.058594 332.46875 574.226562 C 332.542969 574.308594 332.601562 574.402344 332.679688 574.480469 C 332.828125 574.628906 333 574.753906 333.164062 574.882812 C 333.257812 574.957031 333.34375 575.042969 333.441406 575.109375 C 333.597656 575.21875 333.777344 575.300781 333.949219 575.390625 C 334.070312 575.453125 334.1875 575.535156 334.316406 575.589844 C 334.480469 575.660156 334.660156 575.699219 334.832031 575.753906 C 334.980469 575.800781 335.125 575.859375 335.28125 575.890625 C 335.453125 575.929688 335.636719 575.933594 335.8125 575.949219 C 335.980469 575.964844 336.140625 576 336.304688 576 C 336.316406 576 336.324219 576 336.332031 576 C 339.167969 576 341.472656 573.710938 341.484375 570.878906 C 341.492188 569.714844 341.5 567.957031 341.511719 565.699219 C 341.644531 533.0625 341.964844 393.894531 337.476562 378.472656 C 335.53125 371.789062 332.890625 366.425781 329.625 362.527344 C 325.429688 357.519531 321.507812 353.511719 317.714844 349.636719 C 306.535156 338.214844 296.878906 328.351562 285.421875 297.386719 C 278.5 278.667969 261.550781 202.621094 257.375 182.777344 C 256.464844 178.46875 257.339844 174.25 259.765625 171.199219 C 261.636719 168.851562 263.792969 167.761719 266.363281 167.953125 C 271.835938 168.304688 278.46875 173.851562 283.671875 182.4375 C 292.386719 196.816406 298.5 218.992188 302.085938 235.058594 C 302.867188 238.5625 303.878906 241.347656 305.257812 243.832031 C 305.289062 243.886719 305.332031 243.929688 305.367188 243.984375 C 305.460938 244.140625 305.570312 244.289062 305.683594 244.4375 C 305.777344 244.5625 305.871094 244.6875 305.976562 244.800781 C 306.09375 244.929688 306.226562 245.046875 306.359375 245.164062 C 306.476562 245.269531 306.589844 245.375 306.714844 245.464844 C 306.855469 245.570312 307.011719 245.660156 307.164062 245.75 C 307.296875 245.828125 307.429688 245.90625 307.574219 245.972656 C 307.726562 246.046875 307.886719 246.101562 308.046875 246.160156 C 308.210938 246.21875 308.375 246.273438 308.542969 246.316406 C 308.605469 246.328125 308.664062 246.359375 308.726562 246.371094 C 308.824219 246.390625 308.921875 246.386719 309.019531 246.402344 C 309.195312 246.425781 309.367188 246.449219 309.542969 246.457031 C 309.617188 246.460938 309.691406 246.480469 309.765625 246.480469 C 309.820312 246.480469 309.871094 246.453125 309.921875 246.453125 C 310.429688 246.4375 310.933594 246.359375 311.425781 246.191406 C 311.5 246.164062 311.558594 246.128906 311.628906 246.101562 C 311.84375 246.019531 312.058594 245.941406 312.265625 245.828125 C 312.484375 245.703125 312.675781 245.550781 312.871094 245.402344 C 312.925781 245.363281 312.984375 245.332031 313.035156 245.289062 C 313.4375 244.960938 313.761719 244.570312 314.039062 244.152344 C 314.09375 244.070312 314.144531 243.992188 314.195312 243.90625 C 314.457031 243.457031 314.648438 242.976562 314.765625 242.472656 C 314.773438 242.433594 314.800781 242.402344 314.808594 242.359375 C 315.964844 236.714844 315.605469 212.53125 314.878906 170.273438 C 314.1875 130.304688 313.40625 85 314.703125 62.191406 C 315.300781 51.660156 322.042969 45.527344 328.394531 44.90625 C 335.433594 44.253906 341.117188 49.753906 343.65625 59.683594 C 343.777344 60.152344 343.972656 60.574219 344.207031 60.972656 C 343.964844 109.515625 344.433594 172.074219 344.441406 172.859375 C 344.460938 175.695312 346.765625 177.972656 349.589844 177.972656 C 349.605469 177.972656 349.617188 177.972656 349.632812 177.972656 C 352.476562 177.953125 354.761719 175.628906 354.742188 172.789062 C 354.734375 171.789062 353.992188 72.71875 354.859375 27.378906 C 355.070312 16.253906 364.574219 10.300781 373.480469 10.300781 C 373.546875 10.300781 373.613281 10.300781 373.6875 10.300781 C 381.285156 10.378906 389.785156 16.671875 389.785156 24.980469 L 389.78125 96.515625 C 389.773438 167.605469 389.773438 167.605469 389.796875 167.886719 C 390.015625 170.71875 392.449219 173.023438 395.335938 172.796875 C 398.171875 172.578125 400.300781 170.269531 400.085938 167.4375 C 400.078125 166.582031 400.082031 132.546875 400.085938 96.519531 L 400.085938 46.496094 C 400.863281 37.046875 409.269531 33.0625 416.660156 33.347656 C 423.203125 33.605469 430.835938 37.1875 430.816406 46.429688 C 430.722656 93.53125 430.816406 186.484375 430.816406 186.484375 L 441.121094 186.472656 C 441.121094 186.472656 441.070312 139.183594 441.078125 94.976562 C 441.089844 94.84375 441.117188 94.714844 441.121094 94.578125 C 441.136719 88.558594 447.957031 84.828125 454.539062 84.703125 C 462.9375 84.488281 472.402344 89.839844 473.027344 105.199219 C 473.355469 113.203125 473.703125 121.230469 474.046875 129.25 C 477.898438 218.113281 481.875 310.003906 453.660156 362.738281 C 450.769531 368.136719 449.429688 373.484375 449.1875 380.613281 C 448.800781 391.78125 454 535.476562 455.105469 565.699219 C 455.207031 568.546875 455.277344 570.414062 455.300781 571.039062 C 455.402344 573.820312 457.6875 576 460.445312 576 L 460.449219 576 C 460.511719 576 460.570312 576 460.636719 576 C 460.78125 575.992188 460.914062 575.957031 461.054688 575.941406 C 461.234375 575.917969 461.410156 575.90625 461.578125 575.867188 C 461.746094 575.832031 461.902344 575.773438 462.058594 575.71875 C 462.21875 575.664062 462.382812 575.621094 462.535156 575.550781 C 462.6875 575.484375 462.832031 575.394531 462.980469 575.3125 C 463.121094 575.230469 463.269531 575.15625 463.398438 575.0625 C 463.535156 574.964844 463.65625 574.851562 463.785156 574.746094 C 463.90625 574.640625 464.039062 574.539062 464.148438 574.421875 C 464.265625 574.300781 464.359375 574.167969 464.460938 574.042969 C 464.566406 573.910156 464.675781 573.785156 464.761719 573.648438 C 464.851562 573.507812 464.921875 573.359375 465 573.214844 C 465.078125 573.066406 465.160156 572.921875 465.222656 572.765625 C 465.28125 572.609375 465.324219 572.445312 465.371094 572.285156 C 465.421875 572.125 465.472656 571.964844 465.503906 571.796875 C 465.539062 571.625 465.542969 571.449219 465.558594 571.273438 C 465.574219 571.101562 465.59375 570.933594 465.589844 570.753906 C 465.589844 570.722656 465.597656 570.695312 465.597656 570.660156 C 465.53125 568.882812 459.074219 392.824219 459.484375 380.972656 C 459.703125 374.515625 460.945312 370.957031 462.742188 367.597656 C 492.289062 312.375 488.25 219.054688 484.34375 128.804688 C 483.996094 120.792969 483.648438 112.777344 483.324219 104.785156 C 482.453125 83.4375 468.148438 74.253906 454.34375 74.402344 C 449.347656 74.5 444.8125 75.765625 441.085938 77.898438 C 441.089844 66.375 441.101562 55.550781 441.121094 46.449219 C 441.152344 31.027344 428.671875 23.511719 417.066406 23.054688 C 411.097656 22.816406 405.007812 24.398438 400.089844 27.726562 L 400.089844 24.980469 C 400.089844 10.414062 386.226562 0.128906 373.789062 0 C 373.6875 0 373.585938 0 373.480469 0 C 359.65625 0 344.898438 9.472656 344.558594 27.183594 C 344.480469 31.238281 344.417969 35.734375 344.363281 40.535156 C 339.039062 35.699219 332.691406 34.128906 327.398438 34.652344 C 316.679688 35.695312 305.34375 45.289062 304.414062 61.609375 C 303.097656 84.796875 303.886719 130.300781 304.578125 170.453125 C 304.792969 182.964844 305.011719 195.617188 305.136719 206.703125 C 301.742188 196.070312 297.558594 185.464844 292.484375 177.097656 C 285.351562 165.332031 276.070312 158.25 267.015625 157.671875 C 261.136719 157.285156 255.65625 159.816406 251.707031 164.78125 C 247.359375 170.242188 245.746094 177.574219 247.289062 184.898438 C 250.257812 199 268.117188 280.308594 275.757812 300.960938 " fill-opacity="1" fill-rule="nonzero"/></g><path fill="#ef7385" d="M 459.976562 239.488281 C 456.332031 224.890625 446.195312 214.574219 431.433594 210.433594 C 419.078125 206.96875 404.4375 211.25 392.472656 221.417969 C 380.496094 211.238281 365.867188 206.972656 353.519531 210.433594 C 338.765625 214.570312 328.628906 224.890625 324.972656 239.488281 C 320.925781 255.6875 326.324219 268.613281 345.125 287.398438 L 387.878906 325.152344 C 389.152344 326.277344 390.78125 326.898438 392.480469 326.898438 C 394.164062 326.898438 395.789062 326.28125 397.0625 325.164062 L 439.601562 287.640625 C 461.523438 265.714844 463.664062 254.226562 459.976562 239.488281 " fill-opacity="1" fill-rule="nonzero"/><path fill="#000000" d="M 672.726562 289.792969 C 672.054688 273.296875 660.863281 266.097656 650.191406 266.324219 C 647.183594 266.378906 644.425781 267.035156 641.960938 268.082031 C 641.964844 260.511719 641.972656 253.410156 641.988281 247.363281 C 642.007812 235.746094 632.511719 229.292969 623.117188 228.921875 C 619.308594 228.761719 615.449219 229.546875 612.070312 231.253906 C 611.777344 221.121094 602.328125 212.238281 591.554688 212.125 C 591.476562 212.125 591.398438 212.125 591.316406 212.125 C 580.578125 212.125 569.109375 219.503906 568.847656 233.300781 C 568.804688 235.453125 568.773438 237.773438 568.738281 240.222656 C 565.089844 237.828125 561.074219 237.046875 557.617188 237.375 C 549.21875 238.1875 540.335938 245.648438 539.609375 258.320312 C 538.648438 275.265625 539.222656 308.4375 539.726562 337.703125 C 539.828125 343.578125 539.933594 349.652344 540.019531 355.480469 C 537.976562 350.183594 535.8125 345.585938 533.515625 341.800781 C 528.078125 332.832031 520.910156 327.425781 513.855469 326.980469 C 509.074219 326.664062 504.691406 328.699219 501.515625 332.683594 C 498.089844 336.988281 496.816406 342.753906 498.03125 348.496094 C 500.195312 358.792969 513.242188 418.15625 518.820312 433.234375 C 527.820312 457.566406 535.839844 465.757812 544.328125 474.429688 C 546.976562 477.132812 549.714844 479.925781 552.542969 483.3125 C 554.128906 485.195312 555.472656 488.019531 556.539062 491.695312 C 558.910156 499.839844 559.371094 542.3125 559.109375 568.875 C 559.109375 568.882812 559.113281 568.890625 559.113281 568.902344 C 559.109375 569.074219 559.140625 569.238281 559.15625 569.410156 C 559.175781 569.585938 559.175781 569.765625 559.210938 569.9375 C 559.242188 570.109375 559.308594 570.269531 559.359375 570.4375 C 559.40625 570.59375 559.441406 570.753906 559.503906 570.90625 C 559.570312 571.0625 559.664062 571.207031 559.742188 571.355469 C 559.820312 571.5 559.882812 571.648438 559.976562 571.78125 C 560.066406 571.917969 560.179688 572.035156 560.28125 572.164062 C 560.386719 572.292969 560.484375 572.429688 560.601562 572.550781 C 560.710938 572.660156 560.84375 572.753906 560.96875 572.855469 C 561.097656 572.964844 561.21875 573.085938 561.359375 573.179688 C 561.492188 573.269531 561.636719 573.335938 561.777344 573.414062 C 561.929688 573.496094 562.070312 573.589844 562.230469 573.660156 C 562.382812 573.722656 562.542969 573.757812 562.699219 573.808594 C 562.863281 573.863281 563.023438 573.925781 563.199219 573.964844 C 563.363281 574 563.535156 574.003906 563.707031 574.019531 C 563.875 574.039062 564.035156 574.074219 564.207031 574.078125 C 564.226562 574.078125 564.246094 574.078125 564.257812 574.078125 C 567.082031 574.078125 569.378906 571.804688 569.414062 568.976562 C 569.421875 568.082031 569.433594 566.261719 569.449219 563.773438 C 569.542969 547.050781 569.527344 499.449219 566.429688 488.816406 C 564.960938 483.761719 562.945312 479.683594 560.445312 476.695312 C 557.355469 473.003906 554.476562 470.066406 551.695312 467.222656 C 543.660156 459.015625 536.722656 451.933594 528.484375 429.65625 C 523.484375 416.140625 511.15625 360.816406 508.109375 346.375 C 507.546875 343.683594 508.097656 340.964844 509.578125 339.097656 C 510.964844 337.355469 512.246094 337.1875 513.199219 337.261719 C 515.847656 337.429688 520.445312 340.117188 524.703125 347.140625 C 529.648438 355.296875 534.226562 368.402344 537.949219 385.046875 C 538.472656 387.414062 539.207031 389.394531 540.105469 391.160156 C 540.148438 391.273438 540.203125 391.378906 540.253906 391.488281 C 540.308594 391.589844 540.347656 391.714844 540.402344 391.816406 C 540.433594 391.875 540.476562 391.917969 540.511719 391.972656 C 540.605469 392.125 540.710938 392.269531 540.816406 392.410156 C 540.914062 392.542969 541.011719 392.671875 541.125 392.792969 C 541.234375 392.914062 541.359375 393.023438 541.480469 393.132812 C 541.605469 393.246094 541.730469 393.359375 541.867188 393.457031 C 542 393.554688 542.144531 393.636719 542.289062 393.722656 C 542.429688 393.808594 542.570312 393.890625 542.71875 393.960938 C 542.871094 394.03125 543.035156 394.089844 543.199219 394.148438 C 543.351562 394.203125 543.511719 394.253906 543.667969 394.292969 C 543.738281 394.3125 543.800781 394.34375 543.871094 394.359375 C 543.980469 394.378906 544.082031 394.375 544.191406 394.390625 C 544.347656 394.410156 544.503906 394.429688 544.664062 394.4375 C 544.746094 394.441406 544.828125 394.460938 544.910156 394.460938 C 544.96875 394.460938 545.023438 394.433594 545.078125 394.433594 C 545.582031 394.417969 546.074219 394.339844 546.566406 394.171875 C 546.636719 394.148438 546.707031 394.113281 546.777344 394.082031 C 546.992188 394 547.207031 393.925781 547.414062 393.8125 C 547.640625 393.683594 547.835938 393.53125 548.039062 393.375 C 548.082031 393.339844 548.128906 393.316406 548.175781 393.28125 C 548.582031 392.945312 548.914062 392.550781 549.191406 392.125 C 549.242188 392.050781 549.292969 391.976562 549.335938 391.902344 C 549.601562 391.445312 549.792969 390.960938 549.910156 390.449219 C 549.917969 390.410156 549.945312 390.382812 549.949219 390.34375 C 550.824219 386.085938 550.5625 368.410156 550.027344 337.527344 C 549.523438 308.4375 548.957031 275.46875 549.898438 258.90625 C 550.289062 252.019531 554.582031 248.019531 558.617188 247.628906 C 562.898438 247.214844 566.566406 250.835938 568.234375 257.347656 C 568.320312 257.6875 568.441406 258.011719 568.589844 258.320312 C 568.421875 293.632812 568.757812 338.878906 568.765625 339.453125 C 568.78125 342.28125 571.085938 344.5625 573.914062 344.5625 C 573.929688 344.5625 573.941406 344.5625 573.957031 344.5625 C 576.796875 344.542969 579.085938 342.21875 579.066406 339.375 C 579.0625 338.648438 578.519531 266.503906 579.148438 233.5 C 579.289062 226.207031 585.347656 222.429688 591.308594 222.429688 C 591.355469 222.429688 591.402344 222.429688 591.449219 222.429688 C 596.230469 222.476562 601.792969 226.546875 601.792969 231.722656 L 601.789062 286.332031 C 601.785156 335.648438 601.785156 335.648438 601.800781 335.886719 C 601.996094 338.664062 604.394531 340.785156 607.132812 340.667969 C 609.914062 340.5625 612.109375 338.261719 612.089844 335.484375 C 612.085938 334.820312 612.085938 312.472656 612.089844 286.332031 L 612.09375 247.480469 C 612.675781 240.664062 618.914062 239.035156 622.714844 239.214844 C 626.855469 239.378906 631.691406 241.605469 631.679688 247.34375 C 631.613281 281.65625 631.679688 349.363281 631.679688 349.363281 L 641.988281 349.351562 C 641.988281 349.351562 641.949219 314.914062 641.953125 282.71875 C 641.960938 282.617188 641.988281 282.523438 641.988281 282.421875 C 641.996094 278.890625 646.265625 276.703125 650.386719 276.625 C 656.101562 276.554688 662.019531 280.035156 662.429688 290.210938 C 662.789062 299.007812 663.207031 307.84375 663.621094 316.648438 C 666.640625 380.484375 669.488281 440.777344 650.058594 477.089844 C 647.84375 481.222656 646.824219 485.300781 646.632812 490.722656 C 646.375 498.316406 648.527344 547.21875 649.273438 563.773438 C 649.40625 566.777344 649.5 568.726562 649.515625 569.160156 C 649.644531 571.921875 651.921875 574.078125 654.660156 574.078125 L 654.664062 574.078125 C 654.742188 574.078125 654.820312 574.074219 654.902344 574.070312 C 655.039062 574.066406 655.167969 574.027344 655.304688 574.011719 C 655.476562 573.988281 655.652344 573.976562 655.816406 573.9375 C 655.984375 573.898438 656.144531 573.839844 656.308594 573.785156 C 656.464844 573.730469 656.621094 573.683594 656.773438 573.617188 C 656.929688 573.546875 657.070312 573.457031 657.214844 573.371094 C 657.359375 573.292969 657.503906 573.214844 657.636719 573.121094 C 657.769531 573.027344 657.890625 572.914062 658.015625 572.808594 C 658.136719 572.699219 658.269531 572.59375 658.382812 572.476562 C 658.492188 572.359375 658.585938 572.230469 658.683594 572.105469 C 658.792969 571.972656 658.898438 571.839844 658.996094 571.695312 C 659.078125 571.5625 659.144531 571.425781 659.21875 571.285156 C 659.296875 571.128906 659.382812 570.976562 659.445312 570.8125 C 659.503906 570.664062 659.546875 570.507812 659.589844 570.355469 C 659.640625 570.183594 659.691406 570.015625 659.722656 569.839844 C 659.75 569.679688 659.761719 569.515625 659.773438 569.351562 C 659.785156 569.167969 659.808594 568.984375 659.800781 568.800781 C 659.800781 568.761719 659.8125 568.726562 659.808594 568.6875 C 658.710938 544.839844 656.695312 497.929688 656.933594 491.078125 C 657.085938 486.644531 657.925781 484.226562 659.140625 481.949219 C 679.914062 443.128906 677 381.457031 673.914062 316.164062 C 673.5 307.378906 673.082031 298.566406 672.726562 289.792969 " fill-opacity="1" fill-rule="nonzero"/><path fill="#ef7385" d="M 651.132812 389.621094 C 648.578125 379.40625 641.492188 372.191406 631.175781 369.296875 C 622.9375 366.984375 613.273438 369.519531 605.160156 375.914062 C 597.082031 369.539062 587.398438 366.980469 579.140625 369.296875 C 568.824219 372.191406 561.738281 379.40625 559.1875 389.621094 C 556.351562 400.949219 560.019531 409.878906 572.941406 422.789062 L 600.980469 447.546875 C 602.132812 448.570312 603.621094 449.128906 605.160156 449.128906 C 606.699219 449.128906 608.179688 448.570312 609.339844 447.550781 L 637.308594 422.871094 C 650.550781 409.628906 654.039062 401.238281 651.132812 389.621094 " fill-opacity="1" fill-rule="nonzero"/><path fill="#000000" d="M 103.148438 435 C 112.148438 459.335938 120.167969 467.523438 128.65625 476.195312 C 131.304688 478.894531 134.035156 481.691406 136.871094 485.074219 C 138.453125 486.964844 139.796875 489.785156 140.863281 493.460938 C 143.238281 501.605469 143.699219 544.078125 143.433594 570.640625 C 143.433594 570.648438 143.4375 570.660156 143.4375 570.667969 C 143.4375 570.839844 143.464844 571.007812 143.484375 571.175781 C 143.5 571.351562 143.503906 571.535156 143.535156 571.703125 C 143.570312 571.878906 143.632812 572.039062 143.6875 572.207031 C 143.734375 572.359375 143.769531 572.523438 143.832031 572.671875 C 143.898438 572.828125 143.988281 572.972656 144.070312 573.121094 C 144.148438 573.265625 144.210938 573.417969 144.300781 573.550781 C 144.394531 573.6875 144.507812 573.804688 144.609375 573.929688 C 144.714844 574.058594 144.808594 574.195312 144.925781 574.316406 C 145.039062 574.429688 145.171875 574.519531 145.292969 574.625 C 145.421875 574.734375 145.546875 574.851562 145.6875 574.949219 C 145.816406 575.039062 145.964844 575.101562 146.101562 575.179688 C 146.253906 575.261719 146.398438 575.359375 146.558594 575.425781 C 146.707031 575.492188 146.871094 575.527344 147.023438 575.578125 C 147.191406 575.628906 147.351562 575.695312 147.523438 575.730469 C 147.6875 575.765625 147.863281 575.769531 148.03125 575.789062 C 148.199219 575.808594 148.363281 575.839844 148.535156 575.84375 C 148.550781 575.84375 148.570312 575.84375 148.585938 575.84375 C 151.40625 575.84375 153.707031 573.570312 153.738281 570.746094 C 153.746094 569.847656 153.761719 568.03125 153.777344 565.542969 C 153.871094 548.820312 153.855469 501.214844 150.757812 490.582031 C 149.289062 485.527344 147.273438 481.449219 144.773438 478.460938 C 141.679688 474.769531 138.800781 471.828125 136.019531 468.988281 C 127.984375 460.785156 121.050781 453.699219 112.8125 431.425781 C 107.804688 417.886719 95.480469 362.582031 92.4375 348.136719 C 91.871094 345.453125 92.421875 342.734375 93.90625 340.867188 C 95.296875 339.121094 96.539062 338.980469 97.53125 339.027344 C 100.171875 339.195312 104.773438 341.882812 109.03125 348.90625 C 113.976562 357.066406 118.554688 370.175781 122.273438 386.8125 C 122.796875 389.171875 123.527344 391.152344 124.429688 392.914062 C 124.476562 393.042969 124.539062 393.160156 124.597656 393.28125 C 124.648438 393.378906 124.679688 393.492188 124.734375 393.585938 C 124.761719 393.636719 124.800781 393.675781 124.832031 393.722656 C 124.933594 393.890625 125.046875 394.050781 125.164062 394.203125 C 125.253906 394.320312 125.34375 394.4375 125.441406 394.546875 C 125.566406 394.679688 125.699219 394.800781 125.832031 394.921875 C 125.949219 395.023438 126.0625 395.125 126.1875 395.21875 C 126.328125 395.320312 126.480469 395.410156 126.628906 395.5 C 126.769531 395.578125 126.902344 395.660156 127.046875 395.726562 C 127.199219 395.796875 127.359375 395.851562 127.519531 395.910156 C 127.683594 395.96875 127.84375 396.023438 128.011719 396.066406 C 128.078125 396.082031 128.132812 396.109375 128.199219 396.121094 C 128.296875 396.144531 128.394531 396.136719 128.492188 396.152344 C 128.667969 396.179688 128.839844 396.199219 129.019531 396.207031 C 129.089844 396.210938 129.164062 396.230469 129.238281 396.230469 C 129.289062 396.230469 129.335938 396.203125 129.390625 396.203125 C 129.894531 396.1875 130.402344 396.109375 130.898438 395.9375 C 130.96875 395.914062 131.03125 395.878906 131.101562 395.851562 C 131.316406 395.765625 131.53125 395.691406 131.738281 395.574219 C 131.960938 395.453125 132.152344 395.300781 132.34375 395.152344 C 132.398438 395.113281 132.457031 395.082031 132.507812 395.039062 C 132.910156 394.707031 133.238281 394.320312 133.515625 393.894531 C 133.566406 393.816406 133.617188 393.742188 133.664062 393.664062 C 133.925781 393.210938 134.121094 392.722656 134.234375 392.214844 C 134.246094 392.175781 134.269531 392.148438 134.277344 392.109375 C 135.148438 387.855469 134.886719 370.183594 134.355469 339.320312 C 133.851562 310.222656 133.285156 277.238281 134.226562 260.671875 C 134.617188 253.785156 138.90625 249.785156 142.9375 249.394531 C 147.304688 248.964844 150.894531 252.605469 152.558594 259.109375 C 152.648438 259.457031 152.769531 259.78125 152.917969 260.085938 C 152.746094 295.40625 153.085938 340.640625 153.089844 341.214844 C 153.109375 344.050781 155.414062 346.328125 158.242188 346.328125 C 158.253906 346.328125 158.269531 346.328125 158.28125 346.328125 C 161.125 346.308594 163.414062 343.980469 163.394531 341.140625 C 163.386719 340.414062 162.847656 268.269531 163.480469 235.261719 C 163.621094 227.914062 169.734375 224.164062 175.78125 224.195312 C 180.558594 224.246094 186.121094 228.316406 186.121094 233.488281 L 186.117188 288.097656 C 186.113281 337.421875 186.113281 337.421875 186.128906 337.660156 C 186.332031 340.433594 188.710938 342.59375 191.464844 342.429688 C 194.242188 342.324219 196.4375 340.027344 196.417969 337.25 C 196.414062 336.585938 196.414062 314.234375 196.417969 288.101562 L 196.421875 249.242188 C 197.003906 242.429688 203.246094 240.816406 207.039062 240.980469 C 211.183594 241.144531 216.019531 243.371094 216.007812 249.105469 C 215.9375 283.421875 216.007812 351.128906 216.007812 351.128906 L 226.3125 351.121094 C 226.3125 351.121094 226.277344 316.683594 226.28125 284.484375 C 226.289062 284.386719 226.3125 284.289062 226.3125 284.1875 C 226.320312 280.660156 230.589844 278.46875 234.714844 278.390625 C 240.414062 278.292969 246.347656 281.800781 246.757812 291.980469 C 247.117188 300.765625 247.53125 309.585938 247.949219 318.378906 C 250.964844 382.230469 253.816406 442.535156 234.386719 478.855469 C 232.171875 482.992188 231.148438 487.070312 230.960938 492.484375 C 230.699219 500.082031 232.855469 548.980469 233.601562 565.542969 C 233.738281 568.546875 233.828125 570.496094 233.847656 570.929688 C 233.976562 573.691406 236.253906 575.84375 238.988281 575.84375 C 238.988281 575.84375 238.992188 575.84375 238.992188 575.84375 C 239.074219 575.84375 239.152344 575.839844 239.230469 575.839844 C 239.371094 575.832031 239.5 575.796875 239.636719 575.78125 C 239.804688 575.757812 239.980469 575.742188 240.144531 575.703125 C 240.3125 575.664062 240.472656 575.605469 240.636719 575.550781 C 240.792969 575.496094 240.949219 575.449219 241.101562 575.382812 C 241.253906 575.3125 241.398438 575.226562 241.546875 575.140625 C 241.6875 575.058594 241.832031 574.984375 241.964844 574.886719 C 242.097656 574.792969 242.21875 574.683594 242.34375 574.578125 C 242.46875 574.46875 242.597656 574.363281 242.714844 574.242188 C 242.820312 574.128906 242.917969 574 243.015625 573.878906 C 243.121094 573.742188 243.230469 573.605469 243.324219 573.460938 C 243.410156 573.332031 243.472656 573.191406 243.546875 573.054688 C 243.628906 572.898438 243.710938 572.742188 243.777344 572.578125 C 243.835938 572.433594 243.875 572.277344 243.917969 572.128906 C 243.964844 571.953125 244.019531 571.785156 244.050781 571.605469 C 244.082031 571.445312 244.089844 571.28125 244.101562 571.117188 C 244.117188 570.9375 244.136719 570.753906 244.132812 570.566406 C 244.132812 570.527344 244.140625 570.492188 244.136719 570.453125 C 243.039062 546.605469 241.023438 499.691406 241.257812 492.84375 C 241.410156 488.410156 242.253906 485.988281 243.46875 483.714844 C 264.242188 444.890625 261.324219 383.199219 258.242188 317.890625 C 257.824219 309.121094 257.410156 300.324219 257.054688 291.558594 C 256.386719 275.066406 245.320312 268.046875 234.519531 268.089844 C 231.507812 268.148438 228.75 268.804688 226.285156 269.847656 C 226.292969 262.277344 226.300781 255.179688 226.3125 249.128906 C 226.335938 237.511719 216.835938 231.054688 207.445312 230.683594 C 203.644531 230.527344 199.777344 231.3125 196.394531 233.023438 C 196.109375 222.890625 186.65625 214.003906 175.882812 213.894531 C 165.078125 213.761719 153.4375 221.167969 153.175781 235.066406 C 153.136719 237.210938 153.101562 239.527344 153.070312 241.96875 C 149.429688 239.582031 145.421875 238.804688 141.941406 239.140625 C 133.539062 239.957031 124.660156 247.414062 123.9375 260.085938 C 122.976562 277.035156 123.546875 310.222656 124.054688 339.496094 C 124.15625 345.359375 124.261719 351.421875 124.347656 357.242188 C 122.304688 351.949219 120.136719 347.355469 117.839844 343.566406 C 112.40625 334.597656 105.238281 329.195312 98.183594 328.746094 C 93.378906 328.441406 89.015625 330.46875 85.84375 334.449219 C 82.417969 338.753906 81.144531 344.519531 82.355469 350.261719 C 84.523438 360.550781 97.5625 419.898438 103.148438 435 " fill-opacity="1" fill-rule="nonzero"/><path fill="#ef7385" d="M 235.457031 391.386719 C 232.90625 381.171875 225.820312 373.957031 215.503906 371.0625 C 207.242188 368.746094 197.53125 371.320312 189.484375 377.675781 C 181.402344 371.304688 171.726562 368.746094 163.46875 371.0625 C 153.152344 373.957031 146.0625 381.171875 143.511719 391.386719 C 140.675781 402.714844 144.34375 411.644531 157.265625 424.558594 L 185.3125 449.324219 C 186.464844 450.335938 187.945312 450.894531 189.484375 450.894531 C 191.023438 450.894531 192.503906 450.335938 193.664062 449.316406 L 221.632812 424.640625 C 234.875 411.398438 238.367188 403.007812 235.457031 391.386719 " fill-opacity="1" fill-rule="nonzero"/></svg>