<svg xmlns="http://www.w3.org/2000/svg" xmlns:xlink="http://www.w3.org/1999/xlink" width="1920" zoomAndPan="magnify" viewBox="0 0 1440 809.999993" height="1080" preserveAspectRatio="xMidYMid meet" version="1.0"><defs><clipPath id="245d09be10"><path d="M 2 81 L 1435 81 L 1435 668 L 2 668 Z M 2 81 " clip-rule="nonzero"/></clipPath></defs><g clip-path="url(#245d09be10)"><path fill="#fbeeec" d="M 988.808594 80.960938 C 987.402344 80.984375 985.898438 81.050781 984.304688 81.179688 C 977.929688 81.691406 970.144531 83.171875 961.472656 86.8125 C 944.128906 94.101562 935.371094 104.996094 931.433594 109.679688 C 930.53125 110.753906 929.792969 112.660156 928.898438 113.875 C 921.867188 111.789062 914.378906 109.21875 909.199219 109.183594 L 909.175781 109.183594 C 893.554688 109.082031 872.585938 119.398438 857.75 132.292969 C 856.394531 131.742188 855.1875 130.730469 853.808594 130.277344 C 828.144531 121.808594 802.617188 127.367188 783.171875 139.027344 C 755.050781 105.664062 703.070312 91.761719 665.148438 110.125 C 655.050781 115.015625 649.375 119.3125 644.105469 123.621094 C 625.132812 112.195312 601.835938 106.726562 576.546875 112.414062 C 559.457031 116.253906 538.785156 132.144531 524.042969 147.488281 C 517.425781 142.164062 511.296875 136.226562 503.6875 132.121094 C 478.433594 118.5 435.96875 107.523438 399.117188 137.71875 C 400.773438 136.363281 394.546875 140.847656 394.414062 140.929688 C 391.554688 142.652344 389.730469 144.519531 387.105469 146.273438 C 377.039062 139.621094 366.171875 134.207031 354.105469 130.601562 C 333.914062 124.5625 324.285156 125.734375 311.519531 126.046875 C 298.753906 126.359375 287.34375 126.851562 271.003906 131.582031 C 200.835938 151.875 151.964844 212.75 158.027344 288.28125 C 162.445312 343.320312 202.902344 388.945312 253.089844 406.308594 C 261.914062 409.363281 269.375 409.742188 277.25 411.445312 C 274.242188 420.511719 271.457031 429.8125 271.019531 439.535156 C 269.945312 463.539062 276.941406 484.875 285.835938 502.882812 C 287.84375 506.941406 291.121094 511.035156 293.664062 515.070312 C 290.660156 519.410156 286.289062 524.53125 285.089844 527.421875 C 272.976562 556.675781 281.335938 589.964844 295.023438 609.664062 C 305.46875 624.699219 318.628906 634.273438 332.679688 642.003906 C 336.71875 644.945312 341.082031 647.410156 345.6875 649.351562 C 358.898438 654.90625 385.125 659.0625 402.617188 658.367188 C 428.640625 657.328125 461.394531 646.160156 482.183594 629.347656 C 497.726562 644.992188 517.308594 656.808594 540.976562 663.324219 C 545.667969 664.609375 550.492188 665.367188 555.351562 665.578125 C 603.144531 673.402344 647.820312 655.347656 680.757812 622.5 C 696.882812 634.667969 714.773438 644.628906 735.167969 649.25 C 736.339844 649.519531 737.523438 649.753906 738.710938 649.953125 C 783.777344 659.082031 823.449219 646.636719 857.417969 621.773438 C 868.21875 631.585938 881.496094 639.871094 896.167969 642.886719 C 899.394531 643.550781 902.675781 643.964844 905.96875 644.132812 C 913.25 644.941406 921.402344 645.214844 931.621094 642.945312 C 944.828125 640.007812 958.820312 631.285156 968.832031 621.273438 C 993.160156 631.375 1021.691406 635.046875 1047.367188 626.519531 C 1092.136719 611.640625 1116.433594 574.753906 1128.101562 538.816406 C 1139.765625 502.882812 1140.625 463.210938 1127.503906 424.058594 C 1127.15625 423.03125 1126.613281 422.148438 1126.257812 421.132812 C 1126.390625 421.140625 1126.507812 421.191406 1126.640625 421.195312 C 1135.238281 428.398438 1146.554688 435.890625 1162.484375 438.6875 C 1182.292969 442.167969 1202.195312 436.203125 1214.316406 429.386719 C 1238.5625 415.753906 1246.632812 402.347656 1258.769531 386.308594 C 1278.417969 360.332031 1292.304688 331.917969 1296.671875 300.238281 C 1301.039062 268.554688 1293.597656 231.453125 1270.191406 204.09375 C 1266.59375 199.886719 1259.523438 195.710938 1253.636719 191.417969 C 1255.441406 177.515625 1253.964844 163.992188 1250.429688 153.15625 C 1243.050781 130.554688 1228.617188 112.625 1207.570312 100.257812 C 1199.984375 95.796875 1186.699219 90.699219 1176.417969 89.027344 C 1166.140625 87.351562 1158.90625 87.429688 1150.855469 87.449219 L 1150.84375 87.449219 C 1135.746094 87.484375 1115.871094 89.375 1097.234375 98.101562 C 1082.632812 104.941406 1072.269531 113.746094 1062.777344 122.738281 C 1061.214844 120.078125 1060.640625 117.898438 1058.570312 114.984375 C 1046.4375 97.90625 1016.410156 82.640625 998.679688 81.332031 C 996.398438 81.164062 993.039062 80.875 988.8125 80.957031 L 988.808594 80.957031 Z M 991.621094 146.171875 C 992.3125 146.191406 993.070312 146.230469 993.902344 146.292969 C 1003.804688 147.023438 1008.210938 153.230469 1014.078125 174.699219 C 1022.144531 204.195312 1023.535156 213.074219 1024.71875 242.488281 C 1025.730469 267.664062 1025.410156 273.5 1022.558594 282.59375 C 1013.121094 312.613281 983.015625 325.417969 954.640625 311.480469 C 947.820312 308.128906 938.820312 301.238281 931.652344 293.886719 L 919.867188 281.8125 L 917.660156 292.78125 C 912.808594 316.835938 905.675781 343.851562 902.242188 351.210938 C 898.898438 358.363281 892.457031 363.40625 886.886719 363.21875 C 885.636719 363.171875 882.425781 361.953125 879.757812 360.5 C 870.753906 355.605469 867.601562 344.496094 867.679688 317.972656 C 867.773438 285.984375 870.886719 268.863281 883.039062 233.511719 C 888.695312 217.042969 894.058594 199.054688 894.957031 193.539062 C 897.214844 179.671875 901.105469 174.257812 908.75 174.308594 C 917.566406 174.367188 921.984375 178.875 930.957031 196.953125 C 941.160156 217.503906 956.316406 242.390625 964.105469 251.371094 L 970.191406 258.386719 L 969.910156 218.691406 C 969.605469 174.808594 971.570312 163.09375 981.226562 151.613281 C 984.96875 147.164062 986.761719 146.050781 991.621094 146.171875 Z M 1150.996094 152.566406 C 1164.789062 152.535156 1169.242188 153.261719 1174.601562 156.414062 C 1188.484375 164.570312 1194.171875 182.003906 1185.867188 190.925781 C 1183.75 193.199219 1180.988281 195.148438 1179.726562 195.253906 C 1178.464844 195.363281 1174.464844 195.691406 1170.828125 195.972656 C 1141.839844 198.230469 1113.636719 239.082031 1116.605469 274.515625 C 1118.679688 299.199219 1129.054688 309.878906 1155.949219 315.003906 C 1163.589844 316.464844 1169.945312 317.5 1170.078125 317.316406 C 1170.203125 317.128906 1172.039062 311.445312 1174.152344 304.6875 C 1182.472656 278.121094 1181.9375 275.671875 1165.972656 266.65625 C 1160.285156 263.441406 1154.796875 259.253906 1153.78125 257.351562 C 1144.921875 240.796875 1167.570312 225.804688 1193.386719 231.125 C 1207.417969 234.019531 1212.613281 236.921875 1220.746094 246.429688 C 1241.007812 270.117188 1235.652344 308.976562 1206.875 347.015625 C 1186.0625 374.53125 1176.136719 380.105469 1166.019531 369.988281 C 1162.839844 366.804688 1161.382812 363.242188 1161.382812 358.648438 C 1161.382812 354.960938 1161.027344 351.9375 1160.589844 351.9375 C 1160.15625 351.9375 1154.441406 353.3125 1147.898438 354.992188 C 1125.246094 360.796875 1103.632812 355.003906 1087.679688 338.847656 C 1048.378906 299.066406 1054.578125 222.667969 1100.886719 176.027344 C 1120.027344 156.757812 1128.859375 152.617188 1150.996094 152.566406 Z M 710.210938 164.828125 C 722.054688 165.015625 732.429688 171.742188 737.605469 183.722656 C 746.523438 204.367188 737.785156 303.398438 724.230469 335.234375 C 721.304688 342.101562 713.160156 350.078125 709.128906 350.027344 C 707.96875 350.007812 704.894531 348.945312 702.296875 347.652344 C 699.695312 346.359375 695.878906 341.90625 693.796875 337.753906 C 690.464844 331.097656 690.015625 326.433594 690.015625 298.074219 C 690.015625 280.402344 690.671875 260.414062 691.480469 253.65625 L 692.949219 241.367188 L 689.144531 246.097656 C 687.050781 248.695312 679.742188 261.875 672.90625 275.390625 C 666.070312 288.90625 658.265625 302.289062 655.566406 305.121094 C 644.671875 316.5625 629.074219 316.515625 617.644531 305.019531 C 610.664062 298 607.835938 291.539062 600.285156 265.417969 C 598.097656 257.851562 595.582031 252.105469 594.703125 252.652344 C 593.820312 253.199219 592.082031 258.105469 590.839844 263.566406 C 587.820312 276.851562 576.351562 316.917969 572.761719 326.699219 C 567.359375 341.429688 553.074219 341.777344 544.640625 327.371094 C 541.226562 321.539062 540.773438 317.621094 540.816406 294.292969 C 540.902344 256.199219 550.148438 220.242188 566.316406 195.21875 C 574.484375 182.570312 579.738281 178.4375 590.816406 175.945312 C 599.460938 174.003906 609.3125 177.144531 616.96875 184.277344 C 622.003906 188.972656 630.09375 204.355469 635.308594 219.160156 C 637.234375 224.617188 639.273438 229.066406 639.847656 229.054688 C 640.414062 229.039062 645.085938 222.585938 650.210938 214.703125 C 662.496094 195.820312 683.386719 173.632812 693.5 168.734375 C 699.140625 166.007812 704.832031 164.746094 710.210938 164.828125 Z M 18.925781 176.035156 C 17.753906 176.058594 16.671875 176.15625 15.695312 176.339844 C 5.417969 178.269531 0.5625 185.898438 4.128906 194.511719 C 9.246094 206.878906 36.734375 222.761719 66.621094 230.628906 C 85.09375 235.492188 90.90625 235.652344 96.878906 231.46875 C 103.835938 226.59375 102.640625 220.269531 93.023438 211.113281 C 74.359375 193.351562 36.503906 175.746094 18.925781 176.035156 Z M 452.90625 183.824219 C 469.96875 183.566406 492.910156 199.621094 504.050781 222.453125 C 518.484375 252.03125 509.542969 296.574219 483.941406 322.601562 C 465.902344 340.9375 435.242188 351.710938 416.121094 346.429688 L 416.074219 346.429688 C 399.074219 341.738281 387.53125 332.214844 380.929688 317.4375 C 374.9375 304.023438 374.957031 277.136719 381.007812 260.285156 C 389.4375 236.667969 411.722656 206.546875 428.066406 196.667969 C 431.886719 194.359375 437.40625 190.5 440.34375 188.089844 C 443.816406 185.253906 448.128906 183.898438 452.90625 183.824219 Z M 1408.34375 187.832031 C 1392.582031 187.707031 1367.339844 191.683594 1360.332031 195.824219 C 1347.894531 203.175781 1346.519531 216.9375 1357.613281 222.964844 C 1365.0625 227.007812 1374.253906 227.046875 1394.726562 223.128906 C 1412.238281 219.777344 1421.890625 215.785156 1429.628906 208.703125 C 1439.511719 199.664062 1432.464844 190.128906 1414.441406 188.144531 C 1412.65625 187.949219 1410.597656 187.847656 1408.34375 187.832031 Z M 319.628906 191.140625 C 326.007812 191.285156 331.765625 191.898438 335.472656 193.007812 C 361.160156 200.6875 375.710938 223.335938 363.070312 235.980469 C 358.660156 240.394531 357.453125 240.675781 349.371094 239.214844 C 322.929688 234.4375 295.898438 243.847656 283.464844 262.15625 C 276.367188 272.609375 275.894531 280.214844 281.613281 291.898438 C 286.996094 302.902344 297.304688 310.96875 310.28125 314.355469 C 314.4375 315.4375 321.019531 317.144531 324.90625 318.144531 C 338.847656 321.734375 335.605469 335.296875 318.742188 343.917969 C 308.34375 349.230469 288.375 349.613281 274.363281 344.769531 C 244.632812 334.480469 225.160156 311.136719 222.910156 283.074219 C 219.910156 245.707031 249.839844 205.5 289.085938 194.144531 C 296.625 191.960938 308.992188 190.902344 319.628906 191.140625 Z M 827.421875 191.320312 C 835.179688 191.003906 841.667969 195.539062 843.203125 203.714844 C 845.933594 218.289062 834.402344 256.761719 815.175781 297.226562 C 798.410156 332.511719 790.296875 339.5625 779.609375 328.15625 C 775.414062 323.683594 775.042969 321.800781 775.203125 305.945312 C 775.40625 285.992188 781.324219 255.542969 788.609375 236.976562 C 795.082031 220.476562 809 199.382812 816.394531 194.875 C 820.105469 192.609375 823.898438 191.460938 827.421875 191.320312 Z M 448.214844 222.292969 C 447.542969 222.347656 446.871094 223.144531 445.851562 224.464844 C 435.171875 238.332031 422.339844 280.433594 425.257812 292.042969 C 426.804688 298.199219 430.339844 297.863281 441.824219 290.457031 C 452.507812 283.578125 457.664062 271.191406 457.542969 252.710938 C 457.460938 240.707031 456.539062 235.855469 453.0625 229.183594 C 450.441406 224.160156 449.335938 222.199219 448.214844 222.292969 Z M 101.160156 348.296875 C 81.773438 348.347656 49.890625 356.425781 39.605469 365.886719 C 30.769531 374.011719 32.878906 383.796875 44.375 388.023438 C 57.269531 392.765625 100.125 380.222656 113.773438 367.71875 C 119.359375 362.597656 119.964844 355.1875 115.125 351.167969 C 112.699219 349.15625 107.625 348.28125 101.160156 348.296875 Z M 1332.375 380.039062 C 1329.382812 380.078125 1326.683594 380.382812 1324.414062 380.992188 C 1319.726562 382.253906 1314.425781 385.378906 1312.636719 387.9375 C 1303.085938 401.578125 1315.3125 412.449219 1348.578125 419.886719 C 1356.648438 421.691406 1383.289062 421.320312 1388.519531 419.328125 C 1395.042969 416.847656 1397.152344 410.773438 1393.933594 403.707031 C 1388.863281 392.578125 1353.34375 379.785156 1332.375 380.039062 Z M 422.042969 387.019531 C 440.78125 387.210938 459.988281 391.128906 476.53125 399.148438 C 489.292969 405.335938 492.320312 407.585938 496.925781 414.265625 C 501.164062 420.417969 501.003906 426.191406 496.480469 430.28125 C 493.34375 433.125 488.363281 433.664062 462.003906 434.019531 C 436.875 434.363281 428.152344 435.242188 414.722656 438.773438 C 405.667969 441.152344 396.777344 444.191406 394.96875 445.511719 C 391.890625 447.765625 392.003906 448.394531 396.648438 455.21875 C 399.386719 459.234375 411.457031 472.617188 423.480469 484.960938 C 450.367188 512.550781 457.5 525.070312 457.421875 544.535156 C 457.335938 559.328125 452.929688 569.367188 442.355469 578.660156 C 430.765625 588.839844 420.199219 592.496094 400.011719 593.300781 C 384.195312 593.9375 380.746094 593.460938 370.921875 589.324219 C 350.644531 580.789062 339.859375 565.269531 345.214844 552.332031 C 348.691406 543.9375 352.5625 542.597656 369.277344 543.972656 C 382.820312 545.089844 400.015625 542.695312 400.015625 539.699219 C 400.015625 539.082031 389.035156 527.273438 375.621094 513.453125 C 355.828125 493.054688 349.902344 485.625 344.171875 474.027344 C 332.496094 450.390625 333.269531 433.046875 346.800781 415.25 C 360.898438 396.710938 390.816406 386.695312 422.042969 387.019531 Z M 1027.472656 399.789062 C 1041.449219 399.261719 1056.230469 416.238281 1065.792969 444.769531 C 1082.316406 494.078125 1063.3125 552.605469 1026.84375 564.730469 C 1000.460938 573.496094 974.007812 558.4375 957.246094 525.101562 C 953.121094 516.894531 948.347656 505.410156 946.644531 499.582031 C 944.9375 493.753906 943.265625 489.835938 942.929688 490.875 C 938.722656 503.960938 930.507812 542.464844 929.226562 555.105469 C 927.136719 575.738281 922.132812 581.75 909.253906 579.105469 L 909.25 579.105469 C 902.078125 577.632812 896.929688 572.609375 891.746094 562.042969 C 886.75 551.871094 886.507812 550.105469 886.605469 524.902344 C 886.730469 493.386719 890.164062 478.753906 904.007812 450.84375 C 918.738281 421.144531 934.140625 404.679688 949.644531 402.0625 C 964.550781 399.542969 966.144531 402.226562 995.726562 479.53125 C 998.511719 486.808594 1002.628906 495.738281 1004.875 499.378906 L 1008.957031 506 L 1010.679688 500.328125 C 1012.59375 494.011719 1012.808594 440.609375 1010.972656 427.953125 C 1009.332031 416.65625 1014.265625 404.132812 1021.539062 401.113281 C 1023.488281 400.300781 1025.472656 399.867188 1027.472656 399.789062 Z M 786.371094 400.144531 C 806.417969 400.144531 807.671875 400.382812 821.714844 407.09375 C 839.820312 415.746094 851.789062 427.429688 859.722656 444.183594 C 865.480469 456.347656 865.722656 457.785156 865.65625 480.476562 C 865.574219 501.644531 865.054688 505.457031 860.453125 517.105469 C 854.933594 531.082031 842.585938 549.59375 832.378906 559.191406 C 809.769531 580.441406 775.136719 591.539062 749.53125 585.738281 C 719.597656 578.957031 696.082031 555.527344 689.191406 525.625 C 686.425781 513.625 686.808594 488.699219 689.9375 476.945312 C 697.625 448.050781 719.207031 422.851562 748.597656 408.464844 C 765.554688 400.160156 765.636719 400.144531 786.371094 400.144531 Z M 588.804688 421.636719 C 590.855469 421.617188 593.089844 421.625 595.558594 421.660156 C 610.945312 421.847656 613.839844 422.5 626.054688 428.496094 C 643.117188 436.871094 658.5625 452.914062 664.667969 468.597656 C 670.351562 483.207031 670.5 510.054688 664.992188 527.117188 C 647.816406 580.300781 601.203125 612.359375 558.242188 600.53125 L 558.234375 600.53125 C 536.578125 594.570312 516.871094 574.484375 509.617188 550.984375 C 504.886719 535.664062 504.496094 507.847656 508.785156 491.296875 C 515.679688 464.671875 534.09375 440.859375 556.394531 429.722656 C 569.242188 423.304688 574.46875 421.757812 588.804688 421.636719 Z M 218.269531 436.285156 C 213.789062 436.425781 208.90625 437.535156 204.972656 439.566406 C 189.460938 447.59375 160.730469 480.042969 151.425781 500.035156 C 146.457031 510.71875 144.332031 526.980469 147.496094 530.148438 C 148.273438 530.925781 151.578125 531.5625 154.84375 531.5625 C 166.835938 531.5625 217.492188 482.960938 230.339844 459.132812 C 235.402344 449.742188 235.035156 443.425781 229.164062 438.808594 C 226.824219 436.972656 222.75 436.148438 218.269531 436.285156 Z M 770.507812 442.902344 C 767.269531 442.917969 765.390625 444.652344 760.269531 450.421875 C 744.496094 468.195312 736.144531 492.394531 740.097656 508.875 C 745.550781 531.613281 762.351562 538.59375 782.902344 526.65625 C 799.910156 516.78125 811.699219 495.226562 809.417969 478.183594 C 807.429688 463.390625 790.292969 446.359375 774.382812 443.375 C 772.828125 443.085938 771.589844 442.894531 770.507812 442.902344 Z M 1221.101562 448.882812 C 1210.390625 448.882812 1209.257812 459.21875 1217.964844 477.503906 C 1228.207031 499.003906 1258.820312 536.039062 1280.5625 553.234375 C 1288.355469 559.394531 1292.5625 561.300781 1297.3125 560.824219 C 1305.980469 559.949219 1308.9375 554.761719 1305.683594 546.136719 C 1294.636719 516.851562 1235.527344 448.882812 1221.101562 448.882812 Z M 588.179688 459.128906 L 579.378906 468.703125 C 567.40625 481.726562 560.601562 498.96875 560.601562 516.289062 C 560.601562 530.835938 562.359375 537.050781 568.085938 542.78125 C 572.632812 547.332031 577.699219 547.660156 584.976562 543.894531 C 598.144531 537.082031 611.5625 514.371094 611.59375 498.84375 C 611.59375 487.5 604.988281 473.90625 595.289062 465.382812 Z M 588.179688 459.128906 " fill-opacity="1" fill-rule="nonzero"/></g></svg>